<svg width="300" height="300" viewBox="0 0 300 300" fill="none" xmlns="http://www.w3.org/2000/svg">
<g clip-path="url(#clip0_7_104)">
<circle cx="150" cy="150" r="147.5" fill="#91FCDC" stroke="#0D192E" stroke-width="5"/>
<path d="M1 160H42C50.8366 160 58 167.163 58 176V199" stroke="#0D192E" stroke-width="5"/>
<circle cx="57.5913" cy="207.409" r="7.09135" stroke="#0D192E" stroke-width="5"/>
<path d="M3 123H75C86.0457 123 95 131.954 95 143V199" stroke="#0D192E" stroke-width="5"/>
<circle cx="94.5913" cy="207.409" r="7.09135" stroke="#0D192E" stroke-width="5"/>
<path d="M15 86H108C121.255 86 132 96.7452 132 110V200" stroke="#0D192E" stroke-width="5"/>
<circle cx="131.591" cy="207.409" r="7.09135" stroke="#0D192E" stroke-width="5"/>
<circle cx="249.38" cy="207.409" r="7.09135" stroke="#0D192E" stroke-width="5"/>
<circle cx="249.38" cy="87.5913" r="7.09135" stroke="#0D192E" stroke-width="5"/>
<path d="M242 87H197C183.745 87 173 97.7452 173 111V184C173 197.255 183.745 208 197 208H241.361" stroke="#0D192E" stroke-width="5"/>
</g>
<defs>
<clipPath id="clip0_7_104">
<rect width="300" height="300" fill="white"/>
</clipPath>
</defs>
</svg>
